<svg width="22" height="21" viewBox="0 0 22 21" fill="none" xmlns="http://www.w3.org/2000/svg">
<g id="filled/editor/attach-file">
<path id="Vector" d="M14.7226 5.58394V15.2981C14.7226 17.1649 13.2106 18.6769 11.3438 18.6769C9.47696 18.6769 7.96493 17.1649 7.96493 15.2981V4.73923C7.96493 3.57354 8.911 2.62747 10.0767 2.62747C11.2424 2.62747 12.1885 3.57354 12.1885 4.73923V13.6086C12.1885 14.0732 11.8083 14.4533 11.3438 14.4533C10.8792 14.4533 10.4991 14.0732 10.4991 13.6086V5.58394H9.23199V13.6086C9.23199 14.7743 10.1781 15.7204 11.3438 15.7204C12.5095 15.7204 13.4555 14.7743 13.4555 13.6086V4.73923C13.4555 2.87244 11.9435 1.36041 10.0767 1.36041C8.2099 1.36041 6.69788 2.87244 6.69788 4.73923V15.2981C6.69788 17.866 8.77585 19.9439 11.3438 19.9439C13.9117 19.9439 15.9896 17.866 15.9896 15.2981V5.58394H14.7226Z" fill="#5D5FEF"/>
</g>
</svg>
